<?xml version="1.0" encoding="UTF-8" standalone="no"?>
<svg width="101px" height="65px" viewBox="0 0 101 65" version="1.1" xmlns="http://www.w3.org/2000/svg" xmlns:xlink="http://www.w3.org/1999/xlink" xmlns:sketch="http://www.bohemiancoding.com/sketch/ns">
    <!-- Generator: Sketch 3.4.2 (15855) - http://www.bohemiancoding.com/sketch -->
    <title>Untitled</title>
    <desc>Created with Sketch.</desc>
    <defs>
        <path id="path-1" d="M0,0.209108527 L99.9964646,0.209108527 L99.9964646,65 L0,65"></path>
    </defs>
    <g id="Page-1" stroke="none" stroke-width="1" fill="none" fill-rule="evenodd" sketch:type="MSPage">
        <g sketch:type="MSLayerGroup" transform="translate(1.000000, 0.000000)">
            <path d="M96.2083838,64.9994457 C94.1159596,64.9994457 92.4205051,63.3079341 92.4205051,61.220376 L92.4205051,31.1974302 C92.4205051,29.1098721 94.1159596,27.4183605 96.2083838,27.4183605 C98.3008081,27.4183605 99.9962626,29.1098721 99.9962626,31.1974302 L99.9962626,61.220376 C99.9962626,63.3079341 98.3008081,64.9994457 96.2083838,64.9994457" id="Fill-1" fill="#192350" sketch:type="MSShapeGroup"></path>
            <g id="Group-5">
                <mask id="mask-2" sketch:name="Clip 4" fill="white">
                    <use xlink:href="#path-1"></use>
                </mask>
                <g id="Clip-4"></g>
                <path d="M3.78510101,64.9994457 C2.98510101,64.9994457 2.17853535,64.7480116 1.49318182,64.2270039 C-0.170959596,62.9622752 -0.493181818,60.5915388 0.774494949,58.9307636 L44.4593434,1.6985155 C45.4441919,0.409096899 47.1462121,-0.110399225 48.6835859,0.407585271 C50.2239899,0.926073643 51.2608586,2.36665504 51.2608586,3.98812791 L51.2608586,50.9352597 L93.3214646,1.54181008 C94.6755051,-0.0499341085 97.0664141,-0.242918605 98.6608586,1.10797287 C100.255303,2.45936822 100.449747,4.84421318 99.095202,6.43444574 L50.3598485,63.6666938 C49.3320707,64.8744845 47.6573232,65.3148721 46.1664141,64.7676628 C44.6760101,64.2209574 43.685101,62.8050659 43.685101,61.220376 L43.685101,15.1887868 L6.80176768,63.5099884 C6.05631313,64.4859961 4.92752525,64.9994457 3.78510101,64.9994457" id="Fill-3" fill="#192350" sketch:type="MSShapeGroup" mask="url(#mask-2)"></path>
            </g>
        </g>
    </g>
</svg>